<svg width="151" height="138" viewBox="0 0 151 138" fill="none" xmlns="http://www.w3.org/2000/svg">
<path d="M4.83958 130.944C5.41787 133.035 6.98593 134.08 9.54376 134.08C11.1897 134.08 12.4352 133.524 13.2804 132.412L16.7502 134.414C15.1043 136.794 12.6799 137.984 9.47703 137.984C6.71903 137.984 4.50595 137.15 2.8378 135.482C1.16965 133.814 0.335571 131.712 0.335571 129.176C0.335571 126.641 1.15853 124.566 2.80443 122.887C4.45034 121.208 6.56333 120.368 9.1434 120.368C11.59 120.368 13.6085 121.213 15.1988 122.904C16.7891 124.594 17.5842 126.685 17.5842 129.176C17.5842 129.732 17.5286 130.322 17.4174 130.944H4.83958ZM4.77285 127.608H13.2804C13.0358 126.474 12.5297 125.629 11.7624 125.072C10.9951 124.516 10.122 124.238 9.1434 124.238C7.98682 124.238 7.03042 124.533 6.27419 125.123C5.51796 125.712 5.01751 126.54 4.77285 127.608Z" fill="#2B357A"/>
<path d="M33.4317 114.163H37.7356V137.517H33.4317V135.548C32.1639 137.172 30.3623 137.984 28.0269 137.984C25.6915 137.984 23.8621 137.133 22.2718 135.432C20.6815 133.73 19.8864 131.645 19.8864 129.176C19.8864 126.707 20.6815 124.622 22.2718 122.92C23.8621 121.219 25.7805 120.368 28.0269 120.368C30.2734 120.368 32.1639 121.18 33.4317 122.804V114.163ZM25.508 132.562C26.3866 133.441 27.4931 133.88 28.8276 133.88C30.1622 133.88 31.2631 133.441 32.1306 132.562C32.998 131.684 33.4317 130.555 33.4317 129.176C33.4317 127.797 32.998 126.668 32.1306 125.79C31.2631 124.911 30.1622 124.472 28.8276 124.472C27.4931 124.472 26.3866 124.911 25.508 125.79C24.6295 126.668 24.1902 127.797 24.1902 129.176C24.1902 130.555 24.6295 131.684 25.508 132.562Z" fill="#2B357A"/>
<path d="M53.0157 120.835H57.3195V137.517H53.0157V135.648C51.9703 137.205 50.3133 137.984 48.0446 137.984C46.2208 137.984 44.7139 137.372 43.5239 136.149C42.334 134.926 41.739 133.235 41.739 131.078V120.835H46.0428V130.544C46.0428 131.656 46.3431 132.507 46.9436 133.096C47.5442 133.686 48.3449 133.98 49.3458 133.98C50.4579 133.98 51.3476 133.636 52.0148 132.946C52.6821 132.257 53.0157 131.222 53.0157 129.843V120.835Z" fill="#2B357A"/>
<path d="M71.2986 120.368C73.545 120.368 75.4634 121.219 77.0537 122.92C78.644 124.622 79.4392 126.707 79.4392 129.176C79.4392 131.645 78.644 133.73 77.0537 135.432C75.4634 137.133 73.545 137.984 71.2986 137.984C69.0522 137.984 67.1616 137.172 65.8938 135.548V137.517H61.59V114.163H65.8938V122.804C67.1616 121.18 68.9632 120.368 71.2986 120.368ZM67.1949 132.562C68.0624 133.441 69.1634 133.88 70.4979 133.88C71.8324 133.88 72.9389 133.441 73.8175 132.562C74.6961 131.684 75.1353 130.555 75.1353 129.176C75.1353 127.797 74.6961 126.668 73.8175 125.79C72.9389 124.911 71.8324 124.472 70.4979 124.472C69.1634 124.472 68.0624 124.911 67.1949 125.79C66.3275 126.668 65.8938 127.797 65.8938 129.176C65.8938 130.555 66.3275 131.684 67.1949 132.562Z" fill="#2B357A"/>
<path d="M87.1128 123.705C87.5131 122.637 88.1748 121.836 89.0979 121.302C90.0209 120.769 91.0496 120.502 92.184 120.502V125.306C90.8717 125.15 89.6984 125.417 88.6642 126.107C87.6299 126.796 87.1128 127.942 87.1128 129.543V137.517H82.809V120.835H87.1128V123.705Z" fill="#2B357A"/>
<path d="M97.1522 118.834C96.4404 118.834 95.8232 118.572 95.3005 118.05C94.7778 117.527 94.5165 116.91 94.5165 116.198C94.5165 115.486 94.7778 114.863 95.3005 114.33C95.8232 113.796 96.4404 113.529 97.1522 113.529C97.8639 113.529 98.5145 113.796 99.0372 114.33C99.5599 114.863 99.8212 115.486 99.8212 116.198C99.8212 116.91 99.5599 117.527 99.0372 118.05C98.5145 118.572 97.8861 118.834 97.1522 118.834ZM95.0169 137.517V120.835H99.3208V137.517H95.0169Z" fill="#2B357A"/>
<path d="M111.532 137.984C109.018 137.984 106.922 137.139 105.243 135.448C103.564 133.758 102.724 131.667 102.724 129.176C102.724 126.685 103.564 124.594 105.243 122.904C106.922 121.213 109.018 120.368 111.532 120.368C113.155 120.368 114.634 120.758 115.969 121.536C117.303 122.314 118.316 123.36 119.005 124.672L115.302 126.841C114.968 126.151 114.462 125.606 113.784 125.206C113.105 124.806 112.344 124.605 111.498 124.605C110.208 124.605 109.141 125.034 108.295 125.89C107.45 126.746 107.028 127.842 107.028 129.176C107.028 130.511 107.45 131.573 108.295 132.429C109.141 133.285 110.208 133.713 111.498 133.713C112.366 133.713 113.139 133.519 113.817 133.13C114.495 132.74 115.001 132.201 115.335 131.512L119.072 133.647C118.338 134.959 117.303 136.01 115.969 136.8C114.634 137.589 113.155 137.984 111.532 137.984Z" fill="#2B357A"/>
<path d="M137.054 137.517H132.05L125.978 129.938V137.517H121.674V114.163H125.978V128.203L131.716 120.835H136.854L130.148 129.076L137.054 137.517Z" fill="#2B357A"/>
<path d="M142.392 125.573C142.392 126.018 142.687 126.379 143.276 126.657C143.866 126.935 144.583 127.18 145.428 127.391C146.274 127.602 147.119 127.869 147.964 128.192C148.809 128.514 149.526 129.054 150.116 129.81C150.705 130.566 151 131.512 151 132.646C151 134.358 150.361 135.676 149.082 136.599C147.803 137.522 146.207 137.984 144.294 137.984C140.869 137.984 138.533 136.661 137.288 134.014L141.024 131.912C141.514 133.358 142.604 134.08 144.294 134.08C145.829 134.08 146.596 133.602 146.596 132.646C146.596 132.201 146.301 131.84 145.712 131.562C145.123 131.284 144.405 131.033 143.56 130.811C142.715 130.588 141.87 130.31 141.024 129.977C140.179 129.643 139.462 129.115 138.873 128.392C138.283 127.669 137.988 126.763 137.988 125.673C137.988 124.027 138.595 122.731 139.807 121.786C141.019 120.841 142.526 120.368 144.327 120.368C145.684 120.368 146.919 120.674 148.031 121.286C149.143 121.897 150.021 122.77 150.666 123.905L146.996 125.907C146.463 124.772 145.573 124.205 144.327 124.205C143.771 124.205 143.31 124.327 142.943 124.572C142.576 124.817 142.392 125.15 142.392 125.573Z" fill="#2B357A"/>
<path d="M97.1549 118.881C98.6397 118.881 99.8434 117.677 99.8434 116.192C99.8434 114.707 98.6397 113.504 97.1549 113.504C95.6701 113.504 94.4664 114.707 94.4664 116.192C94.4664 117.677 95.6701 118.881 97.1549 118.881Z" fill="#FDB813"/>
<path d="M76.1361 55.1796C53.1043 55.1796 34.4354 73.8015 34.4354 96.7697H55.3425C55.3425 85.2856 64.652 75.9733 76.1389 75.9733C87.623 75.9788 96.9298 85.2856 96.9298 96.7697H117.84C117.84 73.7987 99.168 55.1796 76.1389 55.1796H76.1361Z" fill="#F0503E"/>
<path d="M96.9297 11.4343C96.9297 22.9184 87.6202 32.2307 76.1333 32.2307V53.0272C99.1651 53.0272 117.834 34.4053 117.834 11.4371H96.927L96.9297 11.4343Z" fill="#87A7D6"/>
<path d="M55.3452 11.4344H34.4354C34.4354 34.4053 53.1071 53.0245 76.1361 53.0245V32.228C64.652 32.2225 55.348 22.9157 55.3452 11.4316V11.4344Z" fill="#B1DFDE"/>
<path d="M64.5164 12.1315C64.5164 18.5555 69.7176 23.7567 76.1361 23.7567C82.5546 23.7567 87.7613 18.5555 87.7613 12.1315C87.7613 5.70749 82.5601 0.506302 76.1361 0.506302C69.7121 0.506302 64.5164 5.71025 64.5164 12.1315Z" fill="#FDB813"/>
</svg>
