<svg width="41" height="41" viewBox="0 0 41 41" fill="none" xmlns="http://www.w3.org/2000/svg">
<path d="M20.5374 34.906H20.5346C19.6405 34.9032 18.782 34.5547 18.1389 33.9335C17.4957 33.3123 17.1177 32.4665 17.0837 31.573L17.0837 31.572C17.0672 31.1238 17.1402 30.6767 17.2984 30.257C17.4567 29.8373 17.697 29.4534 18.0053 29.1276C18.3136 28.8018 18.6838 28.5407 19.0941 28.3596C19.5045 28.1785 19.9468 28.0811 20.3953 28.0728L20.4031 28.0727H20.4109H20.4588H20.4598C21.3539 28.0738 22.213 28.4206 22.8571 29.0407C23.5013 29.6608 23.8806 30.506 23.9158 31.3994M20.5374 34.906L23.0623 31.433M20.5374 34.906H20.5852V34.0519M20.5374 34.906L20.5852 34.0519M23.9158 31.3994L23.0623 31.433M23.9158 31.3994C23.9158 31.3994 23.9158 31.3993 23.9158 31.3993L23.0623 31.433M23.9158 31.3994C23.9335 31.8487 23.8612 32.297 23.7032 32.718C23.5452 33.139 23.3046 33.5242 22.9956 33.8509C22.6866 34.1776 22.3154 34.4392 21.9038 34.6204C21.4923 34.8016 21.0486 34.8987 20.599 34.9059L20.5852 34.0519M23.0623 31.433C23.0755 31.7686 23.0216 32.1034 22.9035 32.4178C22.7855 32.7323 22.6058 33.0199 22.3751 33.2639C22.1443 33.5079 21.8671 33.7033 21.5597 33.8386C21.2523 33.9739 20.921 34.0464 20.5852 34.0519M2.26146 34.5627L2.26149 34.5626L18.2309 4.06905C18.2309 4.06898 18.231 4.06891 18.231 4.06885C18.448 3.65476 18.7742 3.30794 19.1742 3.06594C19.5743 2.82391 20.033 2.69596 20.5006 2.69596C20.9682 2.69596 21.4269 2.82391 21.827 3.06594C22.227 3.30793 22.5532 3.65474 22.7702 4.06881C22.7703 4.06889 22.7703 4.06897 22.7704 4.06905L38.738 34.5626L39.4947 34.1663L38.7381 34.5627C38.9427 34.9532 39.043 35.39 39.0294 35.8307C39.0158 36.2714 38.8887 36.7012 38.6604 37.0784C38.4321 37.4556 38.1104 37.7676 37.7262 37.9841C37.3421 38.2005 36.9086 38.3142 36.4677 38.3142H36.4676H4.53198H4.53184C4.09091 38.3142 3.65743 38.2005 3.2733 37.9841C2.88918 37.7676 2.56742 37.4556 2.33912 37.0784C2.11083 36.7012 1.98374 36.2714 1.97013 35.8307C1.95653 35.39 2.05687 34.9532 2.26146 34.5627ZM18.6878 12.577C18.2072 13.0576 17.9373 13.7093 17.9373 14.389V24.639C17.9373 25.3186 18.2072 25.9704 18.6878 26.4509C19.1684 26.9315 19.8202 27.2015 20.4998 27.2015C21.1794 27.2015 21.8312 26.9315 22.3117 26.4509C22.7923 25.9704 23.0623 25.3186 23.0623 24.639V14.389C23.0623 13.7093 22.7923 13.0576 22.3117 12.577C21.8312 12.0964 21.1794 11.8264 20.4998 11.8264C19.8202 11.8264 19.1684 12.0964 18.6878 12.577Z" fill="#E11D48" stroke="#E11D48" stroke-width="1.70833"/>
</svg>
