<svg width="41" height="41" viewBox="0 0 41 41" fill="none" xmlns="http://www.w3.org/2000/svg">
<path d="M27.3334 27.3337C27.3334 25.446 21.9795 23.917 15.375 23.917M27.3334 27.3337C27.3334 29.2214 21.9795 30.7503 15.375 30.7503C8.77062 30.7503 3.41671 29.2214 3.41671 27.3337M27.3334 27.3337V35.7677C27.3334 37.7135 21.9795 39.292 15.375 39.292C8.77062 39.292 3.41671 37.7152 3.41671 35.7677V27.3337M27.3334 27.3337C33.866 27.3337 39.2917 25.6475 39.2917 23.917V6.83366M15.375 23.917C8.77062 23.917 3.41671 25.446 3.41671 27.3337M15.375 23.917C7.82762 23.917 1.70837 22.2309 1.70837 20.5003V11.9587M15.375 8.54199C7.82762 8.54199 1.70837 10.071 1.70837 11.9587M1.70837 11.9587C1.70837 13.8464 7.82762 15.3753 15.375 15.3753C15.375 17.1059 20.9322 18.792 27.4649 18.792C33.9959 18.792 39.2917 17.1059 39.2917 15.3753M39.2917 6.83366C39.2917 4.94595 33.9959 3.41699 27.4649 3.41699C20.9322 3.41699 15.6381 4.94595 15.6381 6.83366M39.2917 6.83366C39.2917 8.72137 33.9959 10.2503 27.4649 10.2503C20.934 10.2503 15.6381 8.72137 15.6381 6.83366M15.6381 6.83366V24.2006" stroke="#FB0D0D" stroke-width="2"/>
</svg>
