<svg width="36" height="38" viewBox="0 0 36 38" fill="none" xmlns="http://www.w3.org/2000/svg">
<g id="Group">
<path id="Vector" d="M9.80068 18.7646C9.80068 17.7226 9.04327 17.1001 7.70777 17.1001C7.16266 17.1001 6.794 17.1508 6.60034 17.2002V20.547C6.82986 20.5963 7.11102 20.6141 7.4969 20.6141C8.92134 20.6141 9.80068 19.9245 9.80068 18.7646ZM18.0719 17.133C17.4738 17.133 17.0864 17.1837 16.8569 17.2345V24.6492C17.0864 24.6999 17.4551 24.6999 17.7893 24.6999C20.2165 24.7164 21.8002 23.4386 21.8002 20.7321C21.8188 18.3779 20.3757 17.133 18.0719 17.133Z" fill="white"/>
<path id="Vector_2" d="M32.9362 13.5919H32.0087V9.18871C32.0079 9.16073 32.0052 9.13284 32.0005 9.10525C32.002 8.92815 31.9384 8.75651 31.8213 8.62198L24.3753 0.254419L24.3698 0.249035C24.2752 0.148063 24.1547 0.0741112 24.021 0.0349995L23.9799 0.0215379C23.9231 0.00759327 23.8648 0.000363199 23.8062 0H5.50645C4.6706 0 3.99207 0.669028 3.99207 1.49017V13.5919H3.06457C1.86893 13.5919 0.900391 14.545 0.900391 15.7215V26.7975C0.900391 27.9727 1.8703 28.9271 3.06457 28.9271H3.99207V36.5098C3.99207 37.331 4.6706 38 5.50645 38H30.4943C31.3288 38 32.0087 37.331 32.0087 36.5098V28.9271H32.9362C34.1318 28.9271 35.1004 27.9727 35.1004 26.7975V15.7215C35.1004 14.545 34.1305 13.5919 32.9362 13.5919ZM5.50645 1.49017H23.0483V9.11467C23.0483 9.52658 23.3876 9.85908 23.8062 9.85908H30.4957V13.5919H5.50645V1.49017ZM24.0976 21.3187C24.0976 23.4483 23.3096 24.9183 22.2166 25.8256C21.0264 26.7988 19.2152 27.2619 17.0004 27.2619C15.6748 27.2619 14.7363 27.1784 14.0975 27.0977V16.1684C15.0373 16.0203 16.2617 15.9382 17.5544 15.9382C19.7008 15.9382 21.0934 16.3178 22.1837 17.1269C23.3588 17.9843 24.0976 19.3547 24.0976 21.3187ZM4.34912 27.1475V16.1684C5.13709 16.0365 6.24517 15.9382 7.80469 15.9382C9.38199 15.9382 10.5065 16.2357 11.2603 16.8294C11.9812 17.3907 12.4668 18.3155 12.4668 19.4045C12.4668 20.4949 12.0988 21.4183 11.4272 22.0456C10.5544 22.8547 9.26297 23.2181 7.7527 23.2181C7.41754 23.2181 7.11521 23.202 6.88129 23.1683V27.1475H4.34912ZM30.4943 36.106H5.50645V28.9271H30.4943V36.106ZM32.6886 18.084H28.3425V20.6268H32.4027V22.6743H28.3425V27.1475H25.7775V16.0203H32.6886V18.084Z" fill="white"/>
</g>
</svg>
